<svg xmlns="http://www.w3.org/2000/svg" xmlns:xlink="http://www.w3.org/1999/xlink" width="40" zoomAndPan="magnify" viewBox="0 0 30 30.000001" height="40" preserveAspectRatio="xMidYMid meet" version="1.0"><defs><clipPath id="a545d00dac"><path d="M 0.484375 6.058594 L 29.515625 6.058594 L 29.515625 22.753906 L 0.484375 22.753906 Z M 0.484375 6.058594 " clip-rule="nonzero"/></clipPath></defs><g clip-path="url(#a545d00dac)"><path fill="#f1be24" d="M 3.414062 6.058594 C 1.863281 6.058594 0.605469 7.320312 0.605469 8.871094 L 0.605469 13.882812 C 0.605469 15.433594 1.863281 16.691406 3.414062 16.691406 L 14.667969 16.691406 C 14.855469 16.691406 15.011719 16.539062 15.011719 16.351562 C 15.011719 16.160156 14.855469 16.007812 14.667969 16.007812 L 3.414062 16.007812 C 2.242188 16.007812 1.289062 15.054688 1.289062 13.882812 L 1.289062 8.871094 C 1.289062 7.699219 2.242188 6.746094 3.414062 6.746094 L 24.613281 6.746094 C 24.804688 6.746094 24.957031 6.59375 24.957031 6.402344 C 24.957031 6.214844 24.804688 6.058594 24.613281 6.058594 Z M 21.144531 9.152344 C 21.109375 9.15625 21.078125 9.164062 21.046875 9.175781 C 20.921875 9.230469 20.839844 9.355469 20.839844 9.492188 L 20.839844 20.3125 C 20.839844 20.449219 20.921875 20.574219 21.046875 20.628906 C 21.171875 20.683594 21.320312 20.65625 21.417969 20.5625 L 23.753906 18.34375 L 25.65625 22.746094 C 25.691406 22.832031 25.761719 22.894531 25.847656 22.929688 C 25.886719 22.945312 25.929688 22.953125 25.972656 22.953125 C 26.019531 22.953125 26.066406 22.941406 26.113281 22.921875 L 27.554688 22.265625 C 27.730469 22.1875 27.804688 21.984375 27.726562 21.8125 L 25.761719 17.464844 L 29.082031 17.179688 C 29.21875 17.167969 29.335938 17.078125 29.378906 16.949219 C 29.421875 16.820312 29.386719 16.679688 29.289062 16.585938 L 21.417969 9.242188 C 21.34375 9.171875 21.242188 9.140625 21.144531 9.152344 Z M 15.726562 9.191406 L 14.226562 13.007812 L 14.796875 13.007812 L 16.300781 9.191406 Z M 17.769531 9.191406 L 16.273438 13.007812 L 16.84375 13.007812 L 18.347656 9.191406 Z M 4.378906 9.484375 L 4.378906 12.636719 L 4.925781 12.636719 L 4.925781 11.503906 C 4.925781 11.167969 5.152344 10.894531 5.476562 10.894531 C 5.769531 10.894531 5.980469 11.066406 5.980469 11.472656 L 5.980469 12.636719 L 6.53125 12.636719 L 6.53125 11.464844 C 6.53125 10.8125 6.25 10.386719 5.621094 10.386719 C 5.367188 10.386719 5.125 10.464844 4.925781 10.71875 L 4.925781 9.484375 Z M 7.765625 9.792969 L 7.214844 9.851562 L 7.214844 10.421875 L 6.800781 10.421875 L 6.800781 10.894531 L 7.214844 10.894531 L 7.214844 11.855469 C 7.214844 12.40625 7.53125 12.683594 8.011719 12.664062 C 8.179688 12.660156 8.3125 12.632812 8.46875 12.570312 L 8.316406 12.101562 C 8.234375 12.140625 8.136719 12.167969 8.050781 12.167969 C 7.878906 12.167969 7.761719 12.066406 7.761719 11.855469 L 7.761719 10.894531 L 8.378906 10.894531 L 8.378906 10.421875 L 7.765625 10.421875 Z M 9.5625 9.792969 L 9.011719 9.851562 L 9.011719 10.421875 L 8.597656 10.421875 L 8.597656 10.894531 L 9.011719 10.894531 L 9.011719 11.855469 C 9.011719 12.40625 9.328125 12.683594 9.808594 12.664062 C 9.976562 12.660156 10.105469 12.632812 10.261719 12.570312 L 10.109375 12.101562 C 10.027344 12.140625 9.929688 12.167969 9.84375 12.167969 C 9.675781 12.167969 9.554688 12.066406 9.554688 11.855469 L 9.554688 10.894531 L 10.171875 10.894531 L 10.171875 10.421875 L 9.5625 10.421875 Z M 11.851562 10.367188 C 11.597656 10.367188 11.300781 10.476562 11.132812 10.722656 L 11.09375 10.417969 L 10.582031 10.417969 L 10.582031 13.5625 L 11.132812 13.5625 L 11.132812 12.375 C 11.289062 12.617188 11.636719 12.691406 11.871094 12.691406 C 12.582031 12.691406 12.992188 12.175781 12.992188 11.53125 C 12.992188 10.875 12.535156 10.367188 11.851562 10.367188 Z M 21.644531 10.390625 L 28.257812 16.5625 L 25.21875 16.824219 C 25.109375 16.832031 25.011719 16.894531 24.953125 16.992188 C 24.898438 17.085938 24.890625 17.203125 24.9375 17.304688 L 26.960938 21.78125 L 26.148438 22.152344 L 24.1875 17.621094 C 24.144531 17.515625 24.050781 17.441406 23.941406 17.417969 C 23.917969 17.414062 23.894531 17.414062 23.871094 17.414062 C 23.785156 17.414062 23.699219 17.445312 23.636719 17.507812 L 21.527344 19.515625 L 21.527344 10.96875 L 22.351562 12.816406 C 22.378906 12.878906 22.441406 12.917969 22.507812 12.917969 C 22.53125 12.917969 22.554688 12.914062 22.578125 12.902344 C 22.664062 12.867188 22.703125 12.765625 22.664062 12.675781 Z M 13.734375 10.730469 C 13.578125 10.730469 13.417969 10.835938 13.417969 11.046875 C 13.417969 11.46875 14.054688 11.46875 14.054688 11.046875 C 14.054688 10.835938 13.894531 10.730469 13.734375 10.730469 Z M 11.8125 10.898438 C 12.207031 10.898438 12.441406 11.183594 12.441406 11.53125 C 12.441406 11.875 12.183594 12.160156 11.8125 12.160156 C 11.4375 12.160156 11.179688 11.875 11.179688 11.53125 C 11.179688 11.183594 11.414062 10.898438 11.8125 10.898438 Z M 13.734375 12.035156 C 13.578125 12.035156 13.417969 12.140625 13.417969 12.351562 C 13.417969 12.773438 14.054688 12.773438 14.054688 12.351562 C 14.054688 12.140625 13.894531 12.035156 13.734375 12.035156 Z M 22.703125 13.160156 C 22.679688 13.160156 22.65625 13.164062 22.636719 13.175781 C 22.550781 13.210938 22.507812 13.3125 22.546875 13.402344 L 22.613281 13.554688 C 22.640625 13.621094 22.703125 13.660156 22.769531 13.660156 C 22.792969 13.660156 22.816406 13.65625 22.839844 13.644531 C 22.925781 13.609375 22.964844 13.507812 22.929688 13.421875 L 22.859375 13.265625 C 22.832031 13.199219 22.769531 13.160156 22.703125 13.160156 Z M 22.703125 13.160156 " fill-opacity="1" fill-rule="nonzero"/></g></svg>