<svg xmlns="http://www.w3.org/2000/svg" xmlns:xlink="http://www.w3.org/1999/xlink" width="40" zoomAndPan="magnify" viewBox="0 0 30 30.000001" height="40" preserveAspectRatio="xMidYMid meet" version="1.0"><defs><clipPath id="d217e8cc29"><path d="M 0.484375 8 L 22 8 L 22 28.25 L 0.484375 28.25 Z M 0.484375 8 " clip-rule="nonzero"/></clipPath><clipPath id="c2e5e891f8"><path d="M 8 0.671875 L 29.515625 0.671875 L 29.515625 20 L 8 20 Z M 8 0.671875 " clip-rule="nonzero"/></clipPath></defs><g clip-path="url(#d217e8cc29)"><path fill="#f1be24" d="M 20.953125 14.496094 C 20.945312 14.765625 20.921875 15.042969 20.875 15.3125 C 20.660156 16.597656 20.007812 17.785156 19.035156 18.652344 L 10.515625 26.257812 C 9.371094 27.277344 7.898438 27.792969 6.363281 27.707031 C 4.828125 27.617188 3.421875 26.941406 2.402344 25.796875 C 0.289062 23.433594 0.496094 19.792969 2.859375 17.683594 L 6.941406 14.039062 C 6.890625 14.808594 6.953125 15.578125 7.125 16.335938 L 4.082031 19.050781 C 2.472656 20.488281 2.332031 22.964844 3.769531 24.574219 C 4.539062 25.441406 5.613281 25.882812 6.691406 25.882812 C 7.617188 25.882812 8.550781 25.554688 9.292969 24.890625 L 17.816406 17.28125 C 18.59375 16.585938 19.054688 15.628906 19.113281 14.585938 C 19.175781 13.542969 18.824219 12.535156 18.128906 11.757812 C 17.757812 11.34375 17.304688 11.011719 16.800781 10.789062 L 18.257812 9.488281 C 18.71875 9.777344 19.132812 10.128906 19.496094 10.535156 C 20.105469 11.21875 20.535156 12.015625 20.765625 12.898438 C 20.765625 12.898438 20.765625 12.898438 20.765625 12.902344 L 20.792969 13.003906 C 20.800781 13.046875 20.8125 13.089844 20.820312 13.136719 C 20.832031 13.179688 20.839844 13.222656 20.851562 13.273438 L 20.851562 13.277344 C 20.859375 13.324219 20.867188 13.363281 20.875 13.40625 C 20.875 13.40625 20.875 13.40625 20.875 13.410156 C 20.882812 13.449219 20.890625 13.492188 20.894531 13.539062 C 20.894531 13.539062 20.894531 13.539062 20.894531 13.542969 C 20.902344 13.585938 20.90625 13.632812 20.914062 13.679688 C 20.917969 13.722656 20.921875 13.765625 20.925781 13.808594 C 20.925781 13.8125 20.925781 13.8125 20.925781 13.816406 C 20.933594 13.855469 20.9375 13.898438 20.9375 13.949219 C 20.941406 14 20.945312 14.042969 20.945312 14.085938 C 20.953125 14.175781 20.953125 14.265625 20.953125 14.359375 C 20.953125 14.402344 20.953125 14.449219 20.953125 14.496094 Z M 21.402344 13.917969 C 21.398438 13.863281 21.394531 13.8125 21.390625 13.769531 C 21.386719 13.71875 21.382812 13.667969 21.375 13.621094 C 21.367188 13.574219 21.363281 13.523438 21.355469 13.480469 C 21.347656 13.425781 21.339844 13.375 21.332031 13.328125 C 21.324219 13.28125 21.316406 13.238281 21.308594 13.191406 L 21.308594 13.183594 C 21.296875 13.132812 21.285156 13.082031 21.277344 13.039062 C 21.265625 12.988281 21.253906 12.941406 21.242188 12.894531 L 21.21875 12.792969 C 21.21875 12.789062 21.21875 12.789062 21.21875 12.785156 L 21.214844 12.777344 C 20.964844 11.824219 20.503906 10.964844 19.84375 10.226562 C 19.410156 9.742188 18.90625 9.328125 18.347656 9 C 18.261719 8.949219 18.148438 8.960938 18.074219 9.027344 L 16.207031 10.695312 C 16.144531 10.75 16.117188 10.835938 16.132812 10.917969 C 16.152344 11 16.210938 11.066406 16.289062 11.089844 C 16.859375 11.277344 17.378906 11.617188 17.78125 12.070312 C 18.394531 12.753906 18.703125 13.640625 18.648438 14.558594 C 18.597656 15.480469 18.191406 16.324219 17.503906 16.9375 L 8.984375 24.542969 C 7.566406 25.808594 5.382812 25.683594 4.117188 24.265625 C 2.851562 22.847656 2.972656 20.664062 4.390625 19.398438 L 7.539062 16.589844 C 7.601562 16.535156 7.628906 16.445312 7.609375 16.363281 C 7.378906 15.421875 7.328125 14.457031 7.464844 13.5 C 7.480469 13.402344 7.433594 13.308594 7.347656 13.261719 C 7.257812 13.214844 7.152344 13.226562 7.082031 13.292969 L 2.550781 17.335938 C -0.00390625 19.617188 -0.226562 23.550781 2.054688 26.109375 C 3.15625 27.34375 4.675781 28.078125 6.335938 28.171875 C 6.457031 28.175781 6.578125 28.179688 6.695312 28.179688 C 8.226562 28.179688 9.679688 27.628906 10.824219 26.605469 L 19.347656 19 C 19.882812 18.519531 20.328125 17.960938 20.667969 17.332031 C 20.996094 16.726562 21.21875 16.074219 21.335938 15.390625 C 21.382812 15.097656 21.410156 14.796875 21.417969 14.503906 C 21.417969 14.453125 21.417969 14.402344 21.417969 14.359375 C 21.417969 14.257812 21.417969 14.160156 21.410156 14.0625 C 21.410156 14.019531 21.40625 13.96875 21.402344 13.917969 " fill-opacity="1" fill-rule="nonzero"/></g><g clip-path="url(#c2e5e891f8)"><path fill="#f1be24" d="M 11.152344 10.28125 L 19.675781 2.675781 C 20.734375 1.726562 22.082031 1.21875 23.492188 1.21875 C 23.605469 1.21875 23.714844 1.21875 23.828125 1.226562 C 25.363281 1.3125 26.769531 1.992188 27.789062 3.132812 C 29.898438 5.5 29.695312 9.140625 27.328125 11.25 L 23.238281 14.898438 C 23.292969 14.125 23.234375 13.355469 23.0625 12.597656 L 26.109375 9.878906 C 27.71875 8.445312 27.859375 5.964844 26.421875 4.355469 C 24.984375 2.746094 22.507812 2.605469 20.898438 4.042969 L 12.375 11.648438 C 11.855469 12.113281 11.46875 12.710938 11.257812 13.371094 C 11.050781 14.015625 11.015625 14.703125 11.152344 15.363281 C 11.289062 16.035156 11.605469 16.660156 12.0625 17.171875 C 12.433594 17.589844 12.886719 17.917969 13.390625 18.140625 L 11.933594 19.441406 C 11.472656 19.152344 11.058594 18.804688 10.695312 18.394531 C 10.292969 17.945312 9.964844 17.441406 9.722656 16.890625 C 8.714844 14.601562 9.289062 11.945312 11.152344 10.28125 Z M 9.296875 17.078125 C 9.558594 17.671875 9.914062 18.21875 10.347656 18.707031 C 10.78125 19.191406 11.285156 19.601562 11.84375 19.929688 C 11.878906 19.953125 11.921875 19.960938 11.960938 19.960938 C 12.015625 19.960938 12.070312 19.941406 12.117188 19.902344 L 13.984375 18.234375 C 14.046875 18.179688 14.074219 18.097656 14.058594 18.015625 C 14.039062 17.933594 13.980469 17.867188 13.902344 17.839844 C 13.328125 17.652344 12.8125 17.316406 12.410156 16.863281 C 12.003906 16.410156 11.726562 15.859375 11.605469 15.269531 C 11.359375 14.066406 11.773438 12.8125 12.683594 11.996094 L 21.207031 4.390625 C 22.625 3.125 24.808594 3.25 26.074219 4.667969 C 27.339844 6.085938 27.214844 8.269531 25.796875 9.535156 L 22.652344 12.34375 C 22.585938 12.398438 22.558594 12.488281 22.578125 12.570312 C 22.808594 13.511719 22.851562 14.476562 22.714844 15.441406 C 22.703125 15.539062 22.75 15.632812 22.835938 15.679688 C 22.921875 15.726562 23.027344 15.710938 23.101562 15.648438 L 27.640625 11.597656 C 30.195312 9.316406 30.417969 5.378906 28.136719 2.824219 C 27.035156 1.589844 25.511719 0.855469 23.855469 0.761719 C 22.195312 0.667969 20.601562 1.222656 19.367188 2.328125 L 10.84375 9.933594 C 9.847656 10.824219 9.175781 11.988281 8.902344 13.296875 C 8.773438 13.925781 8.738281 14.570312 8.804688 15.210938 C 8.871094 15.855469 9.035156 16.484375 9.296875 17.078125 " fill-opacity="1" fill-rule="nonzero"/></g><path fill="#f1be24" d="M 6.074219 5.246094 C 6.085938 5.238281 6.09375 5.226562 6.105469 5.21875 C 6.113281 5.210938 6.125 5.203125 6.136719 5.195312 C 6.238281 5.113281 6.363281 5.070312 6.5 5.070312 C 6.554688 5.070312 6.613281 5.078125 6.671875 5.089844 C 6.921875 5.152344 7.136719 5.332031 7.246094 5.570312 L 8.117188 7.472656 L 6.324219 6.390625 C 6.097656 6.253906 5.945312 6.023438 5.914062 5.765625 C 5.886719 5.5625 5.945312 5.378906 6.074219 5.246094 Z M 6.085938 6.789062 L 8.183594 8.054688 C 8.242188 8.09375 8.308594 8.109375 8.375 8.109375 C 8.457031 8.109375 8.539062 8.078125 8.605469 8.023438 C 8.722656 7.917969 8.757812 7.75 8.6875 7.601562 L 7.667969 5.375 C 7.5 5.007812 7.167969 4.734375 6.78125 4.640625 C 6.445312 4.558594 6.105469 4.625 5.847656 4.828125 C 5.828125 4.839844 5.8125 4.855469 5.792969 4.871094 C 5.777344 4.886719 5.761719 4.902344 5.746094 4.917969 C 5.515625 5.152344 5.410156 5.480469 5.453125 5.824219 C 5.5 6.21875 5.738281 6.582031 6.085938 6.789062 " fill-opacity="1" fill-rule="nonzero"/><path fill="#f1be24" d="M 2.410156 11.394531 C 2.414062 11.378906 2.417969 11.367188 2.421875 11.355469 C 2.425781 11.339844 2.429688 11.328125 2.4375 11.316406 C 2.503906 11.144531 2.652344 11.019531 2.847656 10.960938 C 2.925781 10.9375 3.003906 10.925781 3.082031 10.925781 C 3.257812 10.925781 3.4375 10.984375 3.585938 11.089844 L 5.292969 12.300781 L 3.199219 12.257812 C 2.9375 12.253906 2.6875 12.128906 2.53125 11.925781 C 2.40625 11.761719 2.363281 11.570312 2.410156 11.394531 Z M 3.191406 12.726562 L 5.640625 12.773438 C 5.640625 12.773438 5.644531 12.773438 5.648438 12.773438 C 5.804688 12.773438 5.941406 12.675781 5.992188 12.53125 C 6.039062 12.382812 5.984375 12.222656 5.851562 12.128906 L 3.855469 10.710938 C 3.523438 10.476562 3.097656 10.402344 2.71875 10.515625 C 2.386719 10.613281 2.125 10.839844 2.003906 11.144531 C 1.996094 11.164062 1.988281 11.1875 1.980469 11.207031 C 1.972656 11.230469 1.96875 11.253906 1.960938 11.273438 C 1.878906 11.589844 1.953125 11.929688 2.160156 12.207031 C 2.402344 12.523438 2.785156 12.714844 3.191406 12.726562 " fill-opacity="1" fill-rule="nonzero"/><path fill="#f1be24" d="M 18.269531 26.804688 C 18.1875 26.996094 18.046875 27.128906 17.867188 27.175781 C 17.855469 27.179688 17.84375 27.183594 17.828125 27.1875 C 17.816406 27.1875 17.804688 27.191406 17.789062 27.191406 C 17.605469 27.21875 17.425781 27.15625 17.273438 27.011719 C 17.089844 26.835938 16.992188 26.574219 17.019531 26.3125 L 17.214844 24.226562 L 18.222656 26.0625 C 18.351562 26.292969 18.367188 26.570312 18.269531 26.804688 Z M 17.449219 23.691406 C 17.371094 23.550781 17.21875 23.476562 17.0625 23.507812 C 16.910156 23.539062 16.796875 23.667969 16.785156 23.828125 L 16.554688 26.269531 C 16.515625 26.671875 16.664062 27.074219 16.953125 27.351562 C 17.167969 27.554688 17.4375 27.664062 17.710938 27.664062 C 17.757812 27.664062 17.808594 27.660156 17.855469 27.652344 C 17.878906 27.648438 17.902344 27.644531 17.925781 27.640625 C 17.949219 27.636719 17.96875 27.632812 17.992188 27.625 C 18.304688 27.539062 18.5625 27.304688 18.699219 26.988281 C 18.851562 26.621094 18.828125 26.191406 18.632812 25.835938 L 17.449219 23.691406 " fill-opacity="1" fill-rule="nonzero"/><path fill="#f1be24" d="M 24.113281 23.6875 C 24.105469 23.695312 24.097656 23.703125 24.085938 23.714844 C 24.074219 23.722656 24.066406 23.730469 24.054688 23.738281 C 23.910156 23.851562 23.71875 23.890625 23.519531 23.839844 C 23.269531 23.78125 23.054688 23.601562 22.945312 23.363281 L 22.074219 21.457031 L 23.867188 22.542969 C 24.089844 22.675781 24.246094 22.910156 24.277344 23.164062 C 24.300781 23.371094 24.246094 23.554688 24.113281 23.6875 Z M 24.105469 22.144531 L 22.007812 20.875 C 21.871094 20.792969 21.699219 20.808594 21.585938 20.910156 C 21.46875 21.015625 21.433594 21.183594 21.5 21.328125 L 22.523438 23.554688 C 22.691406 23.921875 23.023438 24.199219 23.410156 24.292969 C 23.503906 24.316406 23.59375 24.328125 23.6875 24.328125 C 23.925781 24.328125 24.15625 24.25 24.34375 24.105469 C 24.359375 24.089844 24.378906 24.074219 24.394531 24.058594 C 24.414062 24.046875 24.429688 24.027344 24.445312 24.011719 C 24.675781 23.78125 24.78125 23.449219 24.738281 23.105469 C 24.6875 22.710938 24.453125 22.351562 24.105469 22.144531 " fill-opacity="1" fill-rule="nonzero"/><path fill="#f1be24" d="M 27.777344 17.539062 C 27.777344 17.550781 27.773438 17.566406 27.769531 17.578125 C 27.765625 17.589844 27.757812 17.601562 27.753906 17.617188 C 27.6875 17.785156 27.539062 17.914062 27.339844 17.972656 C 27.097656 18.042969 26.820312 17.996094 26.605469 17.84375 L 24.898438 16.632812 L 26.992188 16.671875 C 27.253906 16.675781 27.503906 16.804688 27.660156 17.007812 C 27.78125 17.171875 27.828125 17.359375 27.777344 17.539062 Z M 27 16.207031 L 24.550781 16.160156 C 24.390625 16.15625 24.25 16.253906 24.199219 16.402344 C 24.152344 16.550781 24.207031 16.710938 24.335938 16.804688 L 26.335938 18.222656 C 26.5625 18.382812 26.835938 18.46875 27.109375 18.46875 C 27.234375 18.46875 27.355469 18.453125 27.472656 18.417969 C 27.804688 18.320312 28.066406 18.089844 28.1875 17.789062 C 28.195312 17.765625 28.203125 17.746094 28.210938 17.722656 C 28.21875 17.703125 28.222656 17.679688 28.230469 17.65625 C 28.3125 17.339844 28.238281 17.003906 28.03125 16.726562 C 27.789062 16.410156 27.40625 16.214844 27 16.207031 " fill-opacity="1" fill-rule="nonzero"/><path fill="#f1be24" d="M 11.921875 2.125 C 12 1.9375 12.144531 1.804688 12.324219 1.757812 C 12.335938 1.753906 12.347656 1.75 12.363281 1.746094 C 12.375 1.742188 12.386719 1.742188 12.402344 1.738281 C 12.585938 1.714844 12.765625 1.777344 12.914062 1.917969 C 13.101562 2.097656 13.195312 2.359375 13.171875 2.621094 L 12.976562 4.703125 L 11.964844 2.871094 C 11.839844 2.640625 11.824219 2.363281 11.921875 2.125 Z M 12.742188 5.242188 C 12.808594 5.359375 12.925781 5.429688 13.054688 5.429688 C 13.078125 5.429688 13.101562 5.429688 13.125 5.425781 C 13.277344 5.390625 13.390625 5.265625 13.40625 5.105469 L 13.636719 2.664062 C 13.675781 2.261719 13.523438 1.855469 13.238281 1.582031 C 12.984375 1.34375 12.65625 1.234375 12.335938 1.277344 C 12.3125 1.28125 12.289062 1.285156 12.265625 1.292969 C 12.242188 1.296875 12.21875 1.300781 12.199219 1.308594 C 11.886719 1.394531 11.628906 1.625 11.492188 1.945312 C 11.339844 2.3125 11.363281 2.742188 11.558594 3.097656 L 12.742188 5.242188 " fill-opacity="1" fill-rule="nonzero"/></svg>