<svg xmlns="http://www.w3.org/2000/svg" xmlns:xlink="http://www.w3.org/1999/xlink" width="40" zoomAndPan="magnify" viewBox="0 0 30 30.000001" height="40" preserveAspectRatio="xMidYMid meet" version="1.0"><defs><clipPath id="dd7c17e8d6"><path d="M 0.484375 9 L 3 9 L 3 15 L 0.484375 15 Z M 0.484375 9 " clip-rule="nonzero"/></clipPath><clipPath id="a1a6c04e92"><path d="M 22 9 L 29.515625 9 L 29.515625 15 L 22 15 Z M 22 9 " clip-rule="nonzero"/></clipPath><clipPath id="f1df5f2434"><path d="M 3 2.175781 L 21 2.175781 L 21 20 L 3 20 Z M 3 2.175781 " clip-rule="nonzero"/></clipPath><clipPath id="8eff528d34"><path d="M 18 19 L 26 19 L 26 26.855469 L 18 26.855469 Z M 18 19 " clip-rule="nonzero"/></clipPath></defs><g clip-path="url(#dd7c17e8d6)"><path fill="#f1be24" d="M 2.417969 15 L 1.933594 15 C 1.113281 15 0.484375 14.371094 0.484375 13.546875 L 0.484375 10.644531 C 0.484375 9.824219 1.113281 9.195312 1.933594 9.195312 C 2.226562 9.195312 2.417969 9.386719 2.417969 9.675781 C 2.417969 9.96875 2.226562 10.160156 1.933594 10.160156 C 1.644531 10.160156 1.453125 10.355469 1.453125 10.644531 L 1.453125 13.546875 C 1.453125 13.839844 1.644531 14.03125 1.933594 14.03125 L 2.417969 14.03125 C 2.710938 14.03125 2.902344 14.226562 2.902344 14.515625 C 2.902344 14.804688 2.710938 15 2.417969 15 Z M 2.417969 15 " fill-opacity="1" fill-rule="nonzero"/></g><path fill="#f1be24" d="M 23.226562 15 L 21.726562 15 C 21.433594 15 21.242188 14.804688 21.242188 14.515625 C 21.242188 14.226562 21.433594 14.03125 21.726562 14.03125 L 22.742188 14.03125 L 22.742188 10.160156 L 22.160156 10.160156 C 21.871094 10.160156 21.675781 9.96875 21.675781 9.675781 C 21.675781 9.386719 21.871094 9.195312 22.160156 9.195312 L 23.226562 9.195312 C 23.515625 9.195312 23.710938 9.386719 23.710938 9.675781 L 23.710938 14.515625 C 23.710938 14.804688 23.515625 15 23.226562 15 Z M 23.226562 15 " fill-opacity="1" fill-rule="nonzero"/><g clip-path="url(#a1a6c04e92)"><path fill="#f1be24" d="M 28.066406 15 L 23.226562 15 C 22.933594 15 22.742188 14.804688 22.742188 14.515625 L 22.742188 9.675781 C 22.742188 9.386719 22.933594 9.195312 23.226562 9.195312 L 28.066406 9.195312 C 28.886719 9.195312 29.515625 9.824219 29.515625 10.644531 L 29.515625 13.546875 C 29.515625 14.371094 28.886719 15 28.066406 15 Z M 23.710938 14.03125 L 28.066406 14.03125 C 28.355469 14.03125 28.546875 13.839844 28.546875 13.546875 L 28.546875 10.644531 C 28.546875 10.355469 28.355469 10.160156 28.066406 10.160156 L 23.710938 10.160156 Z M 23.710938 14.03125 " fill-opacity="1" fill-rule="nonzero"/></g><path fill="#f1be24" d="M 26.128906 13.546875 C 25.742188 13.546875 25.402344 13.402344 25.113281 13.113281 C 24.53125 12.53125 24.53125 11.613281 25.113281 11.082031 C 25.695312 10.546875 26.613281 10.5 27.144531 11.082031 C 27.675781 11.660156 27.726562 12.582031 27.144531 13.113281 C 26.855469 13.402344 26.515625 13.546875 26.128906 13.546875 Z M 26.128906 11.613281 C 25.984375 11.613281 25.886719 11.660156 25.789062 11.757812 C 25.597656 11.953125 25.597656 12.242188 25.789062 12.433594 C 25.984375 12.628906 26.273438 12.628906 26.46875 12.433594 C 26.660156 12.242188 26.660156 11.953125 26.46875 11.757812 C 26.371094 11.660156 26.273438 11.613281 26.128906 11.613281 Z M 26.128906 11.613281 " fill-opacity="1" fill-rule="nonzero"/><path fill="#f1be24" d="M 27.484375 13.933594 C 27.339844 13.933594 27.242188 13.886719 27.144531 13.789062 L 26.46875 13.113281 C 26.273438 12.917969 26.273438 12.628906 26.46875 12.433594 C 26.660156 12.242188 26.953125 12.242188 27.144531 12.433594 L 27.824219 13.113281 C 28.015625 13.304688 28.015625 13.597656 27.824219 13.789062 C 27.726562 13.886719 27.628906 13.933594 27.484375 13.933594 Z M 27.484375 13.933594 " fill-opacity="1" fill-rule="nonzero"/><g clip-path="url(#f1df5f2434)"><path fill="#f1be24" d="M 12.097656 19.839844 C 9.53125 19.839844 7.066406 18.726562 5.324219 16.597656 C 3.871094 14.804688 3.195312 12.53125 3.433594 10.210938 C 3.675781 7.886719 4.789062 5.804688 6.628906 4.355469 C 8.417969 2.902344 10.695312 2.226562 13.015625 2.46875 C 15.339844 2.710938 17.417969 3.824219 18.871094 5.660156 C 21.53125 8.953125 21.484375 13.644531 18.726562 16.839844 C 18.386719 17.226562 18.046875 17.566406 17.613281 17.902344 C 17.226562 18.242188 16.789062 18.53125 16.304688 18.773438 C 15 19.5 13.546875 19.839844 12.097656 19.839844 Z M 12.097656 3.386719 C 10.304688 3.386719 8.613281 3.96875 7.210938 5.128906 C 5.613281 6.433594 4.597656 8.273438 4.402344 10.355469 C 4.210938 12.433594 4.789062 14.417969 6.097656 16.015625 C 8.46875 18.917969 12.582031 19.742188 15.871094 17.902344 C 16.257812 17.710938 16.644531 17.417969 17.03125 17.128906 C 17.371094 16.839844 17.710938 16.5 18 16.160156 C 20.46875 13.304688 20.515625 9.144531 18.144531 6.242188 C 16.839844 4.644531 15 3.628906 12.917969 3.433594 C 12.628906 3.386719 12.339844 3.386719 12.097656 3.386719 Z M 12.097656 3.386719 " fill-opacity="1" fill-rule="nonzero"/></g><path fill="#f1be24" d="M 19.210938 22.644531 C 19.210938 22.644531 19.160156 22.644531 19.160156 22.644531 C 19.015625 22.644531 18.917969 22.546875 18.824219 22.453125 L 15.675781 18.582031 C 15.53125 18.386719 15.53125 18.046875 15.726562 17.902344 C 15.917969 17.757812 16.257812 17.757812 16.402344 17.953125 L 19.210938 21.433594 L 20.710938 20.226562 L 17.902344 16.742188 C 17.757812 16.546875 17.757812 16.210938 17.953125 16.066406 C 18.144531 15.917969 18.484375 15.917969 18.628906 16.113281 L 21.773438 19.984375 C 21.917969 20.175781 21.917969 20.515625 21.726562 20.660156 L 19.453125 22.5 C 19.453125 22.644531 19.304688 22.644531 19.210938 22.644531 Z M 19.210938 22.644531 " fill-opacity="1" fill-rule="nonzero"/><g clip-path="url(#8eff528d34)"><path fill="#f1be24" d="M 22.453125 26.804688 C 21.628906 26.804688 20.757812 26.417969 20.175781 25.742188 L 18.386719 23.46875 C 18.046875 23.03125 18.097656 22.453125 18.53125 22.113281 L 21.53125 19.695312 C 21.96875 19.355469 22.546875 19.402344 22.886719 19.839844 L 24.726562 22.113281 C 25.742188 23.371094 25.546875 25.210938 24.289062 26.175781 C 23.757812 26.566406 23.128906 26.804688 22.453125 26.804688 Z M 22.160156 20.417969 L 19.160156 22.839844 L 21 25.113281 C 21.675781 25.933594 22.886719 26.082031 23.710938 25.402344 C 24.097656 25.066406 24.339844 24.628906 24.433594 24.097656 C 24.484375 23.566406 24.339844 23.082031 24 22.695312 Z M 24 25.789062 Z M 24 25.789062 " fill-opacity="1" fill-rule="nonzero"/></g><path fill="#f1be24" d="M 12.097656 18.386719 C 8.082031 18.386719 4.839844 15.144531 4.839844 11.128906 C 4.839844 7.113281 8.082031 3.871094 12.097656 3.871094 C 16.113281 3.871094 19.355469 7.113281 19.355469 11.128906 C 19.355469 15.144531 16.113281 18.386719 12.097656 18.386719 Z M 12.097656 4.839844 C 8.613281 4.839844 5.804688 7.644531 5.804688 11.128906 C 5.804688 14.613281 8.613281 17.417969 12.097656 17.417969 C 15.582031 17.417969 18.386719 14.613281 18.386719 11.128906 C 18.386719 7.644531 15.582031 4.839844 12.097656 4.839844 Z M 12.097656 4.839844 " fill-opacity="1" fill-rule="nonzero"/><path fill="#f1be24" d="M 8.710938 14.03125 C 7.355469 14.03125 6.289062 12.96875 6.289062 11.613281 C 6.289062 10.257812 7.355469 9.195312 8.710938 9.195312 C 9.484375 9.195312 10.160156 9.582031 10.644531 10.160156 L 11.613281 10.160156 C 11.710938 9.628906 12.195312 9.195312 12.824219 9.195312 C 13.453125 9.195312 13.886719 9.628906 14.03125 10.160156 L 14.515625 10.160156 L 14.515625 9.917969 C 14.515625 9.242188 15.046875 8.710938 15.726562 8.710938 C 16.402344 8.710938 16.933594 9.242188 16.933594 9.917969 L 16.933594 10.257812 C 17.515625 10.453125 17.902344 10.984375 17.902344 11.613281 C 17.902344 12.433594 17.273438 13.066406 16.453125 13.066406 L 10.644531 13.066406 C 10.160156 13.644531 9.484375 14.03125 8.710938 14.03125 Z M 8.710938 10.160156 C 7.886719 10.160156 7.257812 10.789062 7.257812 11.613281 C 7.257812 12.433594 7.886719 13.066406 8.710938 13.066406 C 9.242188 13.066406 9.675781 12.773438 9.96875 12.339844 C 10.066406 12.195312 10.210938 12.097656 10.402344 12.097656 L 16.453125 12.097656 C 16.742188 12.097656 16.933594 11.902344 16.933594 11.613281 C 16.933594 11.324219 16.742188 11.128906 16.453125 11.128906 C 16.160156 11.128906 15.96875 10.933594 15.96875 10.644531 L 15.96875 9.917969 C 15.96875 9.773438 15.871094 9.675781 15.726562 9.675781 C 15.582031 9.675781 15.484375 9.773438 15.484375 9.917969 L 15.484375 10.644531 C 15.484375 10.933594 15.289062 11.128906 15 11.128906 L 13.546875 11.128906 C 13.257812 11.128906 13.066406 10.933594 13.066406 10.644531 L 13.066406 10.402344 C 13.066406 10.257812 12.96875 10.160156 12.824219 10.160156 C 12.675781 10.160156 12.582031 10.257812 12.582031 10.402344 L 12.582031 10.644531 C 12.582031 10.933594 12.386719 11.128906 12.097656 11.128906 L 10.355469 11.128906 C 10.160156 11.128906 10.015625 11.03125 9.917969 10.886719 C 9.675781 10.453125 9.242188 10.160156 8.710938 10.160156 Z M 8.710938 10.160156 " fill-opacity="1" fill-rule="nonzero"/><path fill="#f1be24" d="M 8.710938 11.613281 C 8.710938 11.746094 8.664062 11.859375 8.566406 11.953125 C 8.472656 12.050781 8.359375 12.097656 8.226562 12.097656 C 8.09375 12.097656 7.976562 12.050781 7.882812 11.953125 C 7.789062 11.859375 7.742188 11.746094 7.742188 11.613281 C 7.742188 11.480469 7.789062 11.367188 7.882812 11.269531 C 7.976562 11.175781 8.09375 11.128906 8.226562 11.128906 C 8.359375 11.128906 8.472656 11.175781 8.566406 11.269531 C 8.664062 11.367188 8.710938 11.480469 8.710938 11.613281 Z M 8.710938 11.613281 " fill-opacity="1" fill-rule="nonzero"/></svg>