<svg xmlns="http://www.w3.org/2000/svg" xmlns:xlink="http://www.w3.org/1999/xlink" width="40" zoomAndPan="magnify" viewBox="0 0 30 30.000001" height="40" preserveAspectRatio="xMidYMid meet" version="1.0"><defs><clipPath id="dc3056a90b"><path d="M 0.484375 0 L 29.515625 0 L 29.515625 29 L 0.484375 29 Z M 0.484375 0 " clip-rule="nonzero"/></clipPath></defs><g clip-path="url(#dc3056a90b)"><path fill="#f1be24" d="M 19.5625 21.273438 C 18.164062 22.347656 16.417969 22.988281 14.519531 22.988281 C 9.949219 22.988281 6.246094 19.285156 6.246094 14.71875 C 6.246094 10.148438 9.949219 6.445312 14.519531 6.445312 C 19.085938 6.445312 22.789062 10.148438 22.789062 14.71875 C 22.789062 16.339844 22.324219 17.851562 21.515625 19.128906 L 23.390625 20.945312 C 23.828125 20.71875 24.382812 20.78125 24.757812 21.144531 L 29.042969 25.300781 C 29.507812 25.753906 29.519531 26.5 29.070312 26.964844 L 27.519531 28.558594 C 27.070312 29.023438 26.324219 29.035156 25.859375 28.585938 L 21.570312 24.425781 C 21.1875 24.050781 21.113281 23.46875 21.359375 23.019531 Z M 20.96875 19.894531 C 20.75 20.164062 20.519531 20.421875 20.269531 20.660156 L 21.976562 22.320312 L 22.699219 21.574219 Z M 14.519531 7.378906 C 10.464844 7.378906 7.179688 10.664062 7.179688 14.71875 C 7.179688 18.769531 10.464844 22.054688 14.519531 22.054688 C 18.570312 22.054688 21.855469 18.769531 21.855469 14.71875 C 21.855469 10.664062 18.570312 7.378906 14.519531 7.378906 Z M 14.519531 7.984375 C 18.238281 7.984375 21.25 11 21.25 14.71875 C 21.25 18.4375 18.238281 21.449219 14.519531 21.449219 C 10.800781 21.449219 7.785156 18.4375 7.785156 14.71875 C 7.785156 11 10.800781 7.984375 14.519531 7.984375 Z M 14.519531 8.917969 C 11.316406 8.917969 8.71875 11.515625 8.71875 14.71875 C 8.71875 17.921875 11.316406 20.519531 14.519531 20.519531 C 17.722656 20.519531 20.320312 17.921875 20.320312 14.71875 C 20.320312 11.515625 17.722656 8.917969 14.519531 8.917969 Z M 15.90625 10.707031 L 15.90625 16.875 C 15.90625 17.132812 15.699219 17.339844 15.441406 17.339844 L 13.59375 17.339844 C 13.335938 17.339844 13.128906 17.132812 13.128906 16.875 L 13.128906 10.707031 C 13.128906 10.449219 13.335938 10.242188 13.59375 10.242188 L 15.441406 10.242188 C 15.699219 10.242188 15.90625 10.449219 15.90625 10.707031 Z M 14.976562 11.175781 C 14.976562 11.175781 14.0625 11.175781 14.0625 11.175781 C 14.0625 11.175781 14.0625 16.40625 14.0625 16.40625 C 14.0625 16.40625 14.976562 16.40625 14.976562 16.40625 Z M 19.339844 13.722656 L 19.339844 16.875 C 19.339844 17.132812 19.128906 17.339844 18.871094 17.339844 L 17.023438 17.339844 C 16.765625 17.339844 16.558594 17.132812 16.558594 16.875 L 16.558594 13.722656 C 16.558594 13.464844 16.765625 13.257812 17.023438 13.257812 L 18.871094 13.257812 C 19.128906 13.257812 19.339844 13.464844 19.339844 13.722656 Z M 18.40625 14.191406 L 17.492188 14.191406 C 17.492188 14.191406 17.492188 16.40625 17.492188 16.40625 L 18.40625 16.40625 Z M 12.476562 12.632812 L 12.476562 16.875 C 12.476562 17.132812 12.269531 17.339844 12.011719 17.339844 L 10.164062 17.339844 C 9.90625 17.339844 9.699219 17.132812 9.699219 16.875 L 9.699219 12.632812 C 9.699219 12.375 9.90625 12.167969 10.164062 12.167969 L 12.011719 12.167969 C 12.269531 12.167969 12.476562 12.375 12.476562 12.632812 Z M 11.546875 13.101562 L 10.632812 13.101562 C 10.632812 13.101562 10.632812 16.40625 10.632812 16.40625 L 11.546875 16.40625 Z M 26.851562 27.910156 L 28.398438 26.316406 C 28.492188 26.21875 28.488281 26.066406 28.394531 25.972656 L 24.109375 21.8125 C 24.011719 21.71875 23.855469 21.722656 23.765625 21.816406 L 22.214844 23.414062 C 22.125 23.507812 22.125 23.664062 22.222656 23.757812 L 26.507812 27.914062 C 26.605469 28.007812 26.757812 28.007812 26.851562 27.910156 Z M 24.851562 0 C 27.363281 0 29.398438 2.035156 29.398438 4.546875 C 29.398438 7.058594 27.363281 9.09375 24.851562 9.09375 C 22.34375 9.09375 20.308594 7.058594 20.308594 4.546875 C 20.308594 2.035156 22.34375 0 24.851562 0 Z M 27.902344 6.488281 C 28.257812 5.925781 28.464844 5.261719 28.464844 4.546875 C 28.464844 2.550781 26.847656 0.933594 24.851562 0.933594 C 22.855469 0.933594 21.238281 2.550781 21.238281 4.546875 C 21.238281 5.261719 21.445312 5.925781 21.804688 6.488281 C 22.125 5.738281 22.710938 5.128906 23.449219 4.785156 C 23.136719 4.445312 22.945312 3.992188 22.945312 3.5 C 22.945312 2.449219 23.804688 1.59375 24.851562 1.59375 C 25.902344 1.59375 26.761719 2.449219 26.761719 3.5 C 26.761719 3.992188 26.570312 4.445312 26.257812 4.785156 C 26.992188 5.128906 27.582031 5.738281 27.902344 6.488281 Z M 22.519531 7.304688 C 23.148438 7.839844 23.964844 8.160156 24.851562 8.160156 C 25.742188 8.160156 26.554688 7.839844 27.1875 7.304688 C 26.964844 6.222656 26.003906 5.40625 24.851562 5.40625 C 23.703125 5.40625 22.742188 6.222656 22.519531 7.304688 Z M 24.851562 4.472656 C 25.390625 4.472656 25.828125 4.035156 25.828125 3.5 C 25.828125 2.964844 25.390625 2.523438 24.851562 2.523438 C 24.316406 2.523438 23.878906 2.964844 23.878906 3.5 C 23.878906 4.035156 24.316406 4.472656 24.851562 4.472656 Z M 5.03125 0 C 7.542969 0 9.578125 2.035156 9.578125 4.546875 C 9.578125 7.058594 7.542969 9.09375 5.03125 9.09375 C 2.519531 9.09375 0.484375 7.058594 0.484375 4.546875 C 0.484375 2.035156 2.519531 0 5.03125 0 Z M 8.078125 6.488281 C 8.4375 5.925781 8.644531 5.261719 8.644531 4.546875 C 8.644531 2.550781 7.027344 0.933594 5.03125 0.933594 C 3.035156 0.933594 1.417969 2.550781 1.417969 4.546875 C 1.417969 5.261719 1.625 5.925781 1.980469 6.488281 C 2.300781 5.738281 2.890625 5.128906 3.625 4.785156 C 3.3125 4.445312 3.121094 3.992188 3.121094 3.5 C 3.121094 2.449219 3.980469 1.59375 5.03125 1.59375 C 6.078125 1.59375 6.9375 2.449219 6.9375 3.5 C 6.9375 3.992188 6.746094 4.445312 6.433594 4.785156 C 7.171875 5.128906 7.757812 5.738281 8.078125 6.488281 Z M 2.699219 7.304688 C 3.328125 7.839844 4.140625 8.160156 5.03125 8.160156 C 5.917969 8.160156 6.734375 7.839844 7.363281 7.304688 C 7.140625 6.222656 6.179688 5.40625 5.03125 5.40625 C 3.878906 5.40625 2.921875 6.222656 2.699219 7.304688 Z M 5.03125 4.472656 C 5.566406 4.472656 6.003906 4.035156 6.003906 3.5 C 6.003906 2.964844 5.566406 2.523438 5.03125 2.523438 C 4.492188 2.523438 4.054688 2.964844 4.054688 3.5 C 4.054688 4.035156 4.492188 4.472656 5.03125 4.472656 Z M 5.03125 19.824219 C 7.542969 19.824219 9.578125 21.859375 9.578125 24.371094 C 9.578125 26.878906 7.542969 28.914062 5.03125 28.914062 C 2.519531 28.914062 0.484375 26.878906 0.484375 24.371094 C 0.484375 21.859375 2.519531 19.824219 5.03125 19.824219 Z M 8.078125 26.308594 C 8.4375 25.75 8.644531 25.082031 8.644531 24.371094 C 8.644531 22.375 7.027344 20.753906 5.03125 20.753906 C 3.035156 20.753906 1.417969 22.375 1.417969 24.371094 C 1.417969 25.082031 1.625 25.75 1.980469 26.308594 C 2.300781 25.5625 2.890625 24.953125 3.625 24.609375 C 3.3125 24.269531 3.121094 23.816406 3.121094 23.324219 C 3.121094 22.273438 3.980469 21.414062 5.03125 21.414062 C 6.078125 21.414062 6.9375 22.273438 6.9375 23.324219 C 6.9375 23.816406 6.746094 24.269531 6.433594 24.609375 C 7.171875 24.953125 7.757812 25.5625 8.078125 26.308594 Z M 2.699219 27.128906 C 3.328125 27.660156 4.140625 27.984375 5.03125 27.984375 C 5.917969 27.984375 6.734375 27.660156 7.363281 27.128906 C 7.140625 26.046875 6.179688 25.230469 5.03125 25.230469 C 3.878906 25.230469 2.921875 26.046875 2.699219 27.128906 Z M 5.03125 24.296875 C 5.566406 24.296875 6.003906 23.859375 6.003906 23.324219 C 6.003906 22.785156 5.566406 22.347656 5.03125 22.347656 C 4.492188 22.347656 4.054688 22.785156 4.054688 23.324219 C 4.054688 23.859375 4.492188 24.296875 5.03125 24.296875 Z M 4.1875 11.730469 C 4.203125 12.144531 4.242188 12.484375 4.308594 12.765625 C 4.394531 13.140625 4.523438 13.386719 4.734375 13.53125 C 4.925781 13.660156 5.171875 13.707031 5.46875 13.726562 C 5.726562 13.742188 5.921875 13.960938 5.90625 14.21875 C 5.890625 14.476562 5.667969 14.671875 5.414062 14.65625 C 4.921875 14.628906 4.527344 14.519531 4.210938 14.304688 C 3.835938 14.046875 3.554688 13.640625 3.398438 12.980469 C 3.320312 12.644531 3.273438 12.238281 3.257812 11.742188 L 3.195312 11.832031 C 3.058594 12.050781 2.769531 12.109375 2.550781 11.972656 C 2.335938 11.832031 2.273438 11.542969 2.414062 11.328125 L 3.335938 9.902344 C 3.421875 9.769531 3.566406 9.691406 3.726562 9.691406 C 3.882812 9.691406 4.03125 9.769531 4.117188 9.902344 L 5.039062 11.328125 C 5.175781 11.542969 5.117188 11.832031 4.898438 11.972656 C 4.683594 12.109375 4.394531 12.050781 4.253906 11.832031 Z M 17.589844 3.144531 L 17.5 3.082031 C 17.28125 2.941406 17.222656 2.652344 17.359375 2.4375 C 17.5 2.222656 17.789062 2.160156 18.003906 2.300781 L 19.429688 3.21875 C 19.5625 3.304688 19.640625 3.453125 19.640625 3.613281 C 19.640625 3.769531 19.5625 3.917969 19.429688 4.003906 L 18.003906 4.925781 C 17.789062 5.0625 17.5 5 17.359375 4.785156 C 17.222656 4.570312 17.28125 4.28125 17.5 4.140625 L 17.601562 4.074219 C 17.1875 4.089844 16.847656 4.128906 16.566406 4.195312 C 16.191406 4.28125 15.945312 4.410156 15.800781 4.621094 C 15.671875 4.8125 15.625 5.058594 15.605469 5.355469 C 15.589844 5.613281 15.371094 5.808594 15.113281 5.792969 C 14.855469 5.777344 14.660156 5.554688 14.675781 5.300781 C 14.703125 4.808594 14.8125 4.414062 15.027344 4.097656 C 15.285156 3.71875 15.691406 3.441406 16.351562 3.285156 C 16.6875 3.207031 17.09375 3.160156 17.589844 3.144531 Z M 12.058594 25.21875 C 12.46875 25.203125 12.8125 25.164062 13.09375 25.097656 C 13.46875 25.011719 13.714844 24.882812 13.859375 24.671875 C 13.988281 24.480469 14.035156 24.234375 14.050781 23.9375 C 14.066406 23.679688 14.289062 23.484375 14.546875 23.5 C 14.804688 23.515625 15 23.738281 14.984375 23.992188 C 14.953125 24.484375 14.84375 24.878906 14.632812 25.195312 C 14.375 25.574219 13.96875 25.851562 13.304688 26.007812 C 12.972656 26.085938 12.566406 26.132812 12.066406 26.152344 L 12.160156 26.210938 C 12.375 26.351562 12.4375 26.640625 12.296875 26.855469 C 12.160156 27.070312 11.871094 27.132812 11.652344 26.992188 L 10.230469 26.074219 C 10.097656 25.988281 10.019531 25.839844 10.019531 25.679688 C 10.019531 25.523438 10.097656 25.375 10.230469 25.289062 L 11.652344 24.371094 C 11.871094 24.230469 12.160156 24.292969 12.296875 24.507812 C 12.4375 24.722656 12.375 25.011719 12.160156 25.152344 Z M 12.058594 25.21875 " fill-opacity="1" fill-rule="evenodd"/></g></svg>